<mxfile host="app.diagrams.net" agent="Mozilla/5.0 (Macintosh; Intel Mac OS X 10_15_7) AppleWebKit/605.1.15 (KHTML, like Gecko) Version/17.1 Safari/605.1.15" version="24.7.7" pages="2">
  <diagram id="prtHgNgQTEPvFCAcTncT" name="Page-1">
    <mxGraphModel dx="1792" dy="1971" grid="1" gridSize="10" guides="1" tooltips="1" connect="1" arrows="1" fold="1" page="1" pageScale="1" pageWidth="827" pageHeight="1169" math="0" shadow="0">
      <root>
        <mxCell id="0" />
        <mxCell id="1" parent="0" />
        <mxCell id="9hdCoJvluRMYCYl9ueBK-32" value="" style="triangle;whiteSpace=wrap;html=1;rotation=-90;strokeWidth=2;" parent="1" vertex="1">
          <mxGeometry x="381.61" y="-421.61" width="243.61" height="1000" as="geometry" />
        </mxCell>
        <UserObject label="&lt;h1&gt;CEO&lt;/h1&gt;" name="Evan Valet" position="HR Director" location="Office 4" email="me@example.com" placeholders="1" link="https://www.draw.io" id="dNxyNK7c78bLwvsdeMH5-16">
          <mxCell style="label;image=https://cdn3.iconfinder.com/data/icons/user-avatars-1/512/users-9-2-128.png;whiteSpace=wrap;html=1;rounded=0;glass=0;treeFolding=1;treeMoving=1;strokeWidth=4;" parent="1" vertex="1">
            <mxGeometry x="448.42" y="20" width="110" height="40" as="geometry" />
          </mxCell>
        </UserObject>
        <mxCell id="9hdCoJvluRMYCYl9ueBK-36" value="&lt;h1&gt;&lt;font face=&quot;Times New Roman&quot;&gt;Head Of Processes&lt;/font&gt;&lt;/h1&gt;" style="rounded=0;whiteSpace=wrap;html=1;strokeWidth=4;" parent="1" vertex="1">
          <mxGeometry x="220" y="140" width="120" height="50" as="geometry" />
        </mxCell>
        <mxCell id="9hdCoJvluRMYCYl9ueBK-37" value="&lt;h1&gt;&lt;font face=&quot;Times New Roman&quot;&gt;Process Commi&lt;/font&gt;ttee&lt;/h1&gt;" style="rounded=0;whiteSpace=wrap;html=1;strokeWidth=4;" parent="1" vertex="1">
          <mxGeometry x="370" y="140" width="120" height="50" as="geometry" />
        </mxCell>
        <mxCell id="9hdCoJvluRMYCYl9ueBK-38" value="&lt;h1&gt;&lt;font face=&quot;Times New Roman&quot;&gt;COO&lt;/font&gt;&lt;/h1&gt;" style="rounded=0;whiteSpace=wrap;html=1;strokeWidth=4;" parent="1" vertex="1">
          <mxGeometry x="520" y="140" width="120" height="50" as="geometry" />
        </mxCell>
        <mxCell id="9hdCoJvluRMYCYl9ueBK-39" value="&lt;h1&gt;&lt;font face=&quot;Times New Roman&quot;&gt;Process Circle&lt;/font&gt;&lt;/h1&gt;" style="rounded=0;whiteSpace=wrap;html=1;strokeWidth=4;" parent="1" vertex="1">
          <mxGeometry x="670" y="140" width="120" height="50" as="geometry" />
        </mxCell>
        <mxCell id="9hdCoJvluRMYCYl9ueBK-40" value="" style="endArrow=none;html=1;rounded=0;" parent="1" edge="1">
          <mxGeometry width="50" height="50" relative="1" as="geometry">
            <mxPoint x="502.58" y="98.39" as="sourcePoint" />
            <mxPoint x="502.58" y="58.39" as="targetPoint" />
            <Array as="points">
              <mxPoint x="502.58" y="78.39" />
            </Array>
          </mxGeometry>
        </mxCell>
        <mxCell id="9hdCoJvluRMYCYl9ueBK-41" value="" style="endArrow=none;html=1;rounded=0;exitX=0.5;exitY=0;exitDx=0;exitDy=0;entryX=0.419;entryY=-0.014;entryDx=0;entryDy=0;entryPerimeter=0;strokeWidth=4;" parent="1" source="9hdCoJvluRMYCYl9ueBK-39" target="9hdCoJvluRMYCYl9ueBK-36" edge="1">
          <mxGeometry width="50" height="50" relative="1" as="geometry">
            <mxPoint x="570" y="105" as="sourcePoint" />
            <mxPoint x="320" y="100" as="targetPoint" />
            <Array as="points">
              <mxPoint x="730" y="100" />
              <mxPoint x="660" y="100" />
              <mxPoint x="630" y="100" />
              <mxPoint x="590" y="100" />
              <mxPoint x="500" y="100" />
              <mxPoint x="270" y="100" />
            </Array>
          </mxGeometry>
        </mxCell>
        <mxCell id="9hdCoJvluRMYCYl9ueBK-42" value="" style="endArrow=none;html=1;rounded=0;strokeWidth=4;" parent="1" edge="1">
          <mxGeometry width="50" height="50" relative="1" as="geometry">
            <mxPoint x="580" y="140" as="sourcePoint" />
            <mxPoint x="420" y="140" as="targetPoint" />
            <Array as="points">
              <mxPoint x="580" y="140" />
              <mxPoint x="580" y="120" />
              <mxPoint x="580" y="100" />
              <mxPoint x="490" y="100" />
              <mxPoint x="420" y="100" />
              <mxPoint x="420" y="140" />
            </Array>
          </mxGeometry>
        </mxCell>
        <mxCell id="9hdCoJvluRMYCYl9ueBK-44" value="" style="swimlane;startSize=0;strokeWidth=2;" parent="1" vertex="1">
          <mxGeometry y="220" width="1010" height="550" as="geometry" />
        </mxCell>
        <mxCell id="9hdCoJvluRMYCYl9ueBK-45" value="&lt;h3&gt;Process Manager (Customer Support feedback loop)&lt;/h3&gt;" style="rounded=0;whiteSpace=wrap;html=1;strokeWidth=4;" parent="9hdCoJvluRMYCYl9ueBK-44" vertex="1">
          <mxGeometry x="200" y="354.5" width="140" height="65.5" as="geometry" />
        </mxCell>
        <mxCell id="9hdCoJvluRMYCYl9ueBK-46" value="&lt;h3&gt;Process Manager (Product Development Integration)&lt;/h3&gt;" style="rounded=0;whiteSpace=wrap;html=1;strokeWidth=4;" parent="9hdCoJvluRMYCYl9ueBK-44" vertex="1">
          <mxGeometry x="200" y="236.5" width="140" height="63.5" as="geometry" />
        </mxCell>
        <mxCell id="9hdCoJvluRMYCYl9ueBK-47" value="&lt;h3&gt;Process manager (Customer Interaction Data Analysis)&lt;/h3&gt;" style="rounded=0;whiteSpace=wrap;html=1;strokeWidth=4;" parent="9hdCoJvluRMYCYl9ueBK-44" vertex="1">
          <mxGeometry x="200" y="130" width="140" height="70" as="geometry" />
        </mxCell>
        <mxCell id="9hdCoJvluRMYCYl9ueBK-52" value="" style="endArrow=none;html=1;rounded=0;entryX=0;entryY=0.5;entryDx=0;entryDy=0;strokeWidth=4;" parent="9hdCoJvluRMYCYl9ueBK-44" target="9hdCoJvluRMYCYl9ueBK-46" edge="1">
          <mxGeometry width="50" height="50" relative="1" as="geometry">
            <mxPoint x="140" y="268" as="sourcePoint" />
            <mxPoint x="190" y="260" as="targetPoint" />
          </mxGeometry>
        </mxCell>
        <mxCell id="9hdCoJvluRMYCYl9ueBK-53" value="" style="endArrow=none;html=1;rounded=0;strokeWidth=4;" parent="9hdCoJvluRMYCYl9ueBK-44" edge="1">
          <mxGeometry width="50" height="50" relative="1" as="geometry">
            <mxPoint x="140" y="160" as="sourcePoint" />
            <mxPoint x="200" y="160" as="targetPoint" />
          </mxGeometry>
        </mxCell>
        <mxCell id="9hdCoJvluRMYCYl9ueBK-54" value="&lt;h1&gt;&lt;font face=&quot;Times New Roman&quot;&gt;Data Analysis&lt;/font&gt;&lt;/h1&gt;" style="rounded=0;whiteSpace=wrap;html=1;rotation=-90;strokeWidth=4;" parent="9hdCoJvluRMYCYl9ueBK-44" vertex="1">
          <mxGeometry x="330" y="235" width="370" height="60" as="geometry" />
        </mxCell>
        <mxCell id="9hdCoJvluRMYCYl9ueBK-55" value="&lt;h1&gt;&lt;font face=&quot;Times New Roman&quot;&gt;Product Development&lt;/font&gt;&lt;/h1&gt;" style="rounded=0;whiteSpace=wrap;html=1;rotation=-90;strokeWidth=4;" parent="9hdCoJvluRMYCYl9ueBK-44" vertex="1">
          <mxGeometry x="440" y="235" width="375" height="60" as="geometry" />
        </mxCell>
        <mxCell id="9hdCoJvluRMYCYl9ueBK-56" value="&lt;h1&gt;&lt;font face=&quot;Times New Roman&quot;&gt;Customer support&lt;/font&gt;&lt;/h1&gt;" style="rounded=0;whiteSpace=wrap;html=1;rotation=-90;strokeWidth=4;" parent="9hdCoJvluRMYCYl9ueBK-44" vertex="1">
          <mxGeometry x="545" y="235" width="370" height="60" as="geometry" />
        </mxCell>
        <mxCell id="9hdCoJvluRMYCYl9ueBK-57" value="&lt;h1&gt;&lt;font face=&quot;Times New Roman&quot;&gt;IT Support&lt;/font&gt;&lt;/h1&gt;" style="rounded=0;whiteSpace=wrap;html=1;rotation=-90;strokeWidth=4;" parent="9hdCoJvluRMYCYl9ueBK-44" vertex="1">
          <mxGeometry x="226.5" y="236.5" width="373" height="60" as="geometry" />
        </mxCell>
        <mxCell id="9hdCoJvluRMYCYl9ueBK-58" value="&lt;h1&gt;&lt;font face=&quot;Times New Roman&quot;&gt;Finance&lt;/font&gt;&lt;/h1&gt;" style="rounded=0;whiteSpace=wrap;html=1;rotation=-90;strokeWidth=4;fillStyle=auto;perimeterSpacing=0;" parent="9hdCoJvluRMYCYl9ueBK-44" vertex="1">
          <mxGeometry x="635" y="235" width="375" height="60" as="geometry" />
        </mxCell>
        <mxCell id="9hdCoJvluRMYCYl9ueBK-61" value="" style="endArrow=none;html=1;rounded=0;strokeWidth=2;" parent="9hdCoJvluRMYCYl9ueBK-44" edge="1">
          <mxGeometry width="50" height="50" relative="1" as="geometry">
            <mxPoint x="100" y="410" as="sourcePoint" />
            <mxPoint x="80" y="64.5" as="targetPoint" />
            <Array as="points">
              <mxPoint x="80" y="410" />
              <mxPoint x="80" y="254.5" />
              <mxPoint x="50" y="244.5" />
              <mxPoint x="80" y="234.5" />
              <mxPoint x="80" y="204.5" />
              <mxPoint x="80" y="134.5" />
              <mxPoint x="80" y="104.5" />
            </Array>
          </mxGeometry>
        </mxCell>
        <mxCell id="9hdCoJvluRMYCYl9ueBK-63" value="" style="endArrow=none;html=1;rounded=0;strokeWidth=2;" parent="9hdCoJvluRMYCYl9ueBK-44" edge="1">
          <mxGeometry width="50" height="50" relative="1" as="geometry">
            <mxPoint x="370" y="480" as="sourcePoint" />
            <mxPoint x="870" y="480" as="targetPoint" />
            <Array as="points">
              <mxPoint x="600" y="480" />
              <mxPoint x="630" y="530" />
              <mxPoint x="660" y="480" />
            </Array>
          </mxGeometry>
        </mxCell>
        <mxCell id="9hdCoJvluRMYCYl9ueBK-69" value="&lt;h2&gt;Process dimension&lt;/h2&gt;" style="text;html=1;align=center;verticalAlign=middle;resizable=0;points=[];autosize=1;strokeColor=none;fillColor=none;rotation=-90;" parent="9hdCoJvluRMYCYl9ueBK-44" vertex="1">
          <mxGeometry x="-65" y="215" width="190" height="60" as="geometry" />
        </mxCell>
        <mxCell id="xdT2FYYZ3LfpCEPrv4e7-6" value="" style="endArrow=open;endFill=1;html=1;rounded=1;curved=0;strokeWidth=1;startArrow=none;startFill=0;shape=flexArrow;strokeColor=#1A1A1A;fillColor=default;gradientColor=default;gradientDirection=south;endSize=9;opacity=20;" parent="9hdCoJvluRMYCYl9ueBK-44" edge="1">
          <mxGeometry width="160" relative="1" as="geometry">
            <mxPoint x="340" y="164.17000000000002" as="sourcePoint" />
            <mxPoint x="940" y="164" as="targetPoint" />
          </mxGeometry>
        </mxCell>
        <mxCell id="xdT2FYYZ3LfpCEPrv4e7-7" value="" style="endArrow=open;endFill=1;html=1;rounded=1;curved=0;strokeWidth=1;startArrow=none;startFill=0;shape=flexArrow;strokeColor=#1A1A1A;fillColor=default;gradientColor=default;gradientDirection=south;endSize=9;opacity=20;" parent="9hdCoJvluRMYCYl9ueBK-44" edge="1">
          <mxGeometry width="160" relative="1" as="geometry">
            <mxPoint x="340" y="267.59000000000003" as="sourcePoint" />
            <mxPoint x="940" y="267.42" as="targetPoint" />
          </mxGeometry>
        </mxCell>
        <mxCell id="xdT2FYYZ3LfpCEPrv4e7-8" value="" style="endArrow=open;endFill=1;html=1;rounded=1;curved=0;strokeWidth=1;startArrow=none;startFill=0;shape=flexArrow;strokeColor=#1A1A1A;fillColor=default;gradientColor=default;gradientDirection=south;endSize=9;opacity=20;" parent="9hdCoJvluRMYCYl9ueBK-44" edge="1">
          <mxGeometry width="160" relative="1" as="geometry">
            <mxPoint x="340" y="386.59000000000003" as="sourcePoint" />
            <mxPoint x="940" y="386.41999999999996" as="targetPoint" />
          </mxGeometry>
        </mxCell>
        <mxCell id="9hdCoJvluRMYCYl9ueBK-50" value="" style="endArrow=none;html=1;rounded=0;entryX=0;entryY=0.75;entryDx=0;entryDy=0;exitX=0;exitY=0.25;exitDx=0;exitDy=0;strokeWidth=4;" parent="1" source="9hdCoJvluRMYCYl9ueBK-36" target="9hdCoJvluRMYCYl9ueBK-45" edge="1">
          <mxGeometry width="50" height="50" relative="1" as="geometry">
            <mxPoint x="570" y="310" as="sourcePoint" />
            <mxPoint x="140" y="329" as="targetPoint" />
            <Array as="points">
              <mxPoint x="140" y="153" />
              <mxPoint x="140" y="290" />
              <mxPoint x="140" y="624" />
              <mxPoint x="160" y="624" />
            </Array>
          </mxGeometry>
        </mxCell>
        <mxCell id="9hdCoJvluRMYCYl9ueBK-68" value="&lt;h2&gt;functional dimension&lt;/h2&gt;" style="text;html=1;align=center;verticalAlign=middle;resizable=0;points=[];autosize=1;strokeColor=none;fillColor=none;" parent="1" vertex="1">
          <mxGeometry x="440" y="713" width="200" height="60" as="geometry" />
        </mxCell>
      </root>
    </mxGraphModel>
  </diagram>
  <diagram id="QFWzycCKN_m96EIuDcdw" name="Page-2">
    <mxGraphModel dx="710" dy="522" grid="1" gridSize="10" guides="1" tooltips="1" connect="1" arrows="1" fold="1" page="1" pageScale="1" pageWidth="850" pageHeight="1100" math="0" shadow="0">
      <root>
        <mxCell id="0" />
        <mxCell id="1" parent="0" />
        <mxCell id="vSe0WeRxE17JH_EeaYV--1" value="Available &amp;nbsp; &amp;nbsp; &amp;nbsp; &amp;nbsp; &amp;nbsp; &amp;nbsp; &amp;nbsp; &amp;nbsp; &amp;nbsp; &amp;nbsp; &amp;nbsp; &amp;nbsp; &amp;nbsp; &amp;nbsp; &amp;nbsp; &amp;nbsp; &amp;nbsp; &amp;nbsp; &amp;nbsp; &amp;nbsp; &amp;nbsp; &amp;nbsp; &amp;nbsp; &amp;nbsp; &amp;nbsp;Missing" style="shape=table;startSize=30;container=1;collapsible=1;childLayout=tableLayout;fixedRows=1;rowLines=0;fontStyle=1;align=left;resizeLast=1;html=1;whiteSpace=wrap;" vertex="1" parent="1">
          <mxGeometry x="280" y="200" width="270" height="120" as="geometry">
            <mxRectangle x="280" y="200" width="300" height="30" as="alternateBounds" />
          </mxGeometry>
        </mxCell>
        <mxCell id="vSe0WeRxE17JH_EeaYV--2" value="" style="shape=tableRow;horizontal=0;startSize=0;swimlaneHead=0;swimlaneBody=0;fillColor=none;collapsible=0;dropTarget=0;points=[[0,0.5],[1,0.5]];portConstraint=eastwest;top=0;left=0;right=0;bottom=0;html=1;" vertex="1" parent="vSe0WeRxE17JH_EeaYV--1">
          <mxGeometry y="30" width="270" height="30" as="geometry" />
        </mxCell>
        <mxCell id="vSe0WeRxE17JH_EeaYV--3" value="" style="shape=partialRectangle;connectable=0;fillColor=none;top=0;left=0;bottom=0;right=0;fontStyle=1;overflow=hidden;html=1;whiteSpace=wrap;" vertex="1" parent="vSe0WeRxE17JH_EeaYV--2">
          <mxGeometry width="40" height="30" as="geometry">
            <mxRectangle width="40" height="30" as="alternateBounds" />
          </mxGeometry>
        </mxCell>
        <mxCell id="vSe0WeRxE17JH_EeaYV--4" value="" style="shape=partialRectangle;connectable=0;fillColor=none;top=0;left=0;bottom=0;right=0;align=left;spacingLeft=6;fontStyle=5;overflow=hidden;html=1;whiteSpace=wrap;" vertex="1" parent="vSe0WeRxE17JH_EeaYV--2">
          <mxGeometry x="40" width="230" height="30" as="geometry">
            <mxRectangle width="230" height="30" as="alternateBounds" />
          </mxGeometry>
        </mxCell>
        <mxCell id="vSe0WeRxE17JH_EeaYV--5" value="" style="shape=tableRow;horizontal=0;startSize=0;swimlaneHead=0;swimlaneBody=0;fillColor=none;collapsible=0;dropTarget=0;points=[[0,0.5],[1,0.5]];portConstraint=eastwest;top=0;left=0;right=0;bottom=1;html=1;" vertex="1" parent="vSe0WeRxE17JH_EeaYV--1">
          <mxGeometry y="60" width="270" height="20" as="geometry" />
        </mxCell>
        <mxCell id="vSe0WeRxE17JH_EeaYV--6" value="" style="shape=partialRectangle;connectable=0;fillColor=none;top=0;left=0;bottom=0;right=0;fontStyle=1;overflow=hidden;html=1;whiteSpace=wrap;" vertex="1" parent="vSe0WeRxE17JH_EeaYV--5">
          <mxGeometry width="40" height="20" as="geometry">
            <mxRectangle width="40" height="20" as="alternateBounds" />
          </mxGeometry>
        </mxCell>
        <mxCell id="vSe0WeRxE17JH_EeaYV--7" value="" style="shape=partialRectangle;connectable=0;fillColor=none;top=0;left=0;bottom=0;right=0;align=left;spacingLeft=6;fontStyle=5;overflow=hidden;html=1;whiteSpace=wrap;" vertex="1" parent="vSe0WeRxE17JH_EeaYV--5">
          <mxGeometry x="40" width="230" height="20" as="geometry">
            <mxRectangle width="230" height="20" as="alternateBounds" />
          </mxGeometry>
        </mxCell>
        <mxCell id="vSe0WeRxE17JH_EeaYV--20" value="" style="endArrow=none;html=1;rounded=0;entryX=0.407;entryY=1.05;entryDx=0;entryDy=0;entryPerimeter=0;" edge="1" parent="vSe0WeRxE17JH_EeaYV--1">
          <mxGeometry relative="1" as="geometry">
            <mxPoint x="220" y="30" as="sourcePoint" />
            <mxPoint x="220" y="121" as="targetPoint" />
            <Array as="points">
              <mxPoint x="220" y="50" />
              <mxPoint x="220" y="70" />
              <mxPoint x="220" y="100" />
            </Array>
          </mxGeometry>
        </mxCell>
        <mxCell id="vSe0WeRxE17JH_EeaYV--8" value="" style="shape=tableRow;horizontal=0;startSize=0;swimlaneHead=0;swimlaneBody=0;fillColor=none;collapsible=0;dropTarget=0;points=[[0,0.5],[1,0.5]];portConstraint=eastwest;top=0;left=0;right=0;bottom=0;html=1;" vertex="1" parent="vSe0WeRxE17JH_EeaYV--1">
          <mxGeometry y="80" width="270" height="20" as="geometry" />
        </mxCell>
        <mxCell id="vSe0WeRxE17JH_EeaYV--9" value="" style="shape=partialRectangle;connectable=0;fillColor=none;top=0;left=0;bottom=0;right=0;editable=1;overflow=hidden;html=1;whiteSpace=wrap;" vertex="1" parent="vSe0WeRxE17JH_EeaYV--8">
          <mxGeometry width="40" height="20" as="geometry">
            <mxRectangle width="40" height="20" as="alternateBounds" />
          </mxGeometry>
        </mxCell>
        <mxCell id="vSe0WeRxE17JH_EeaYV--10" value="" style="shape=partialRectangle;connectable=0;fillColor=none;top=0;left=0;bottom=0;right=0;align=left;spacingLeft=6;overflow=hidden;html=1;whiteSpace=wrap;" vertex="1" parent="vSe0WeRxE17JH_EeaYV--8">
          <mxGeometry x="40" width="230" height="20" as="geometry">
            <mxRectangle width="230" height="20" as="alternateBounds" />
          </mxGeometry>
        </mxCell>
        <mxCell id="vSe0WeRxE17JH_EeaYV--18" value="" style="endArrow=none;html=1;rounded=0;entryX=0.407;entryY=1.05;entryDx=0;entryDy=0;entryPerimeter=0;" edge="1" parent="vSe0WeRxE17JH_EeaYV--1">
          <mxGeometry relative="1" as="geometry">
            <mxPoint x="170" y="30" as="sourcePoint" />
            <mxPoint x="170" y="121" as="targetPoint" />
            <Array as="points">
              <mxPoint x="170" y="50" />
              <mxPoint x="170" y="70" />
              <mxPoint x="170" y="100" />
            </Array>
          </mxGeometry>
        </mxCell>
        <mxCell id="vSe0WeRxE17JH_EeaYV--11" value="" style="shape=tableRow;horizontal=0;startSize=0;swimlaneHead=0;swimlaneBody=0;fillColor=none;collapsible=0;dropTarget=0;points=[[0,0.5],[1,0.5]];portConstraint=eastwest;top=0;left=0;right=0;bottom=0;html=1;" vertex="1" parent="vSe0WeRxE17JH_EeaYV--1">
          <mxGeometry y="100" width="270" height="20" as="geometry" />
        </mxCell>
        <mxCell id="vSe0WeRxE17JH_EeaYV--12" value="" style="shape=partialRectangle;connectable=0;fillColor=none;top=0;left=0;bottom=0;right=0;editable=1;overflow=hidden;html=1;whiteSpace=wrap;" vertex="1" parent="vSe0WeRxE17JH_EeaYV--11">
          <mxGeometry width="40" height="20" as="geometry">
            <mxRectangle width="40" height="20" as="alternateBounds" />
          </mxGeometry>
        </mxCell>
        <mxCell id="vSe0WeRxE17JH_EeaYV--13" value="" style="shape=partialRectangle;connectable=0;fillColor=none;top=0;left=0;bottom=0;right=0;align=left;spacingLeft=6;overflow=hidden;html=1;whiteSpace=wrap;" vertex="1" parent="vSe0WeRxE17JH_EeaYV--11">
          <mxGeometry x="40" width="230" height="20" as="geometry">
            <mxRectangle width="230" height="20" as="alternateBounds" />
          </mxGeometry>
        </mxCell>
        <mxCell id="vSe0WeRxE17JH_EeaYV--17" value="" style="endArrow=none;html=1;rounded=0;entryX=0.407;entryY=1.05;entryDx=0;entryDy=0;entryPerimeter=0;" edge="1" parent="vSe0WeRxE17JH_EeaYV--1" target="vSe0WeRxE17JH_EeaYV--11">
          <mxGeometry relative="1" as="geometry">
            <mxPoint x="110" y="30" as="sourcePoint" />
            <mxPoint x="170" y="70" as="targetPoint" />
            <Array as="points">
              <mxPoint x="110" y="70" />
              <mxPoint x="110" y="100" />
            </Array>
          </mxGeometry>
        </mxCell>
        <mxCell id="vSe0WeRxE17JH_EeaYV--21" value="Service Components &amp;nbsp; &amp;nbsp; &amp;nbsp; &amp;nbsp; &amp;nbsp; &amp;nbsp; &amp;nbsp; &amp;nbsp; &amp;nbsp; &amp;nbsp; &amp;nbsp; &amp;nbsp; &amp;nbsp; &amp;nbsp; &amp;nbsp; &amp;nbsp; &amp;nbsp; &amp;nbsp; &amp;nbsp; &amp;nbsp; &amp;nbsp; &amp;nbsp; &amp;nbsp; &amp;nbsp; &amp;nbsp; &amp;nbsp; &amp;nbsp; &amp;nbsp; &amp;nbsp; &amp;nbsp;Importance" style="shape=table;startSize=30;container=1;collapsible=1;childLayout=tableLayout;fixedRows=1;rowLines=0;fontStyle=1;align=center;resizeLast=1;html=1;whiteSpace=wrap;" vertex="1" parent="1">
          <mxGeometry x="20" y="200" width="260" height="150" as="geometry" />
        </mxCell>
        <mxCell id="vSe0WeRxE17JH_EeaYV--22" value="" style="shape=tableRow;horizontal=0;startSize=0;swimlaneHead=0;swimlaneBody=0;fillColor=none;collapsible=0;dropTarget=0;points=[[0,0.5],[1,0.5]];portConstraint=eastwest;top=0;left=0;right=0;bottom=0;html=1;" vertex="1" parent="vSe0WeRxE17JH_EeaYV--21">
          <mxGeometry y="30" width="260" height="30" as="geometry" />
        </mxCell>
        <mxCell id="vSe0WeRxE17JH_EeaYV--23" value="" style="shape=partialRectangle;connectable=0;fillColor=none;top=0;left=0;bottom=0;right=0;fontStyle=1;overflow=hidden;html=1;whiteSpace=wrap;" vertex="1" parent="vSe0WeRxE17JH_EeaYV--22">
          <mxGeometry width="100" height="30" as="geometry">
            <mxRectangle width="100" height="30" as="alternateBounds" />
          </mxGeometry>
        </mxCell>
        <mxCell id="vSe0WeRxE17JH_EeaYV--24" value="" style="shape=partialRectangle;connectable=0;fillColor=none;top=0;left=0;bottom=0;right=0;align=left;spacingLeft=6;fontStyle=5;overflow=hidden;html=1;whiteSpace=wrap;" vertex="1" parent="vSe0WeRxE17JH_EeaYV--22">
          <mxGeometry x="100" width="160" height="30" as="geometry">
            <mxRectangle width="160" height="30" as="alternateBounds" />
          </mxGeometry>
        </mxCell>
        <mxCell id="vSe0WeRxE17JH_EeaYV--25" value="" style="shape=tableRow;horizontal=0;startSize=0;swimlaneHead=0;swimlaneBody=0;fillColor=none;collapsible=0;dropTarget=0;points=[[0,0.5],[1,0.5]];portConstraint=eastwest;top=0;left=0;right=0;bottom=1;html=1;" vertex="1" parent="vSe0WeRxE17JH_EeaYV--21">
          <mxGeometry y="60" width="260" height="30" as="geometry" />
        </mxCell>
        <mxCell id="vSe0WeRxE17JH_EeaYV--26" value="" style="shape=partialRectangle;connectable=0;fillColor=none;top=0;left=0;bottom=0;right=0;fontStyle=1;overflow=hidden;html=1;whiteSpace=wrap;" vertex="1" parent="vSe0WeRxE17JH_EeaYV--25">
          <mxGeometry width="100" height="30" as="geometry">
            <mxRectangle width="100" height="30" as="alternateBounds" />
          </mxGeometry>
        </mxCell>
        <mxCell id="vSe0WeRxE17JH_EeaYV--27" value="" style="shape=partialRectangle;connectable=0;fillColor=none;top=0;left=0;bottom=0;right=0;align=left;spacingLeft=6;fontStyle=5;overflow=hidden;html=1;whiteSpace=wrap;" vertex="1" parent="vSe0WeRxE17JH_EeaYV--25">
          <mxGeometry x="100" width="160" height="30" as="geometry">
            <mxRectangle width="160" height="30" as="alternateBounds" />
          </mxGeometry>
        </mxCell>
        <mxCell id="vSe0WeRxE17JH_EeaYV--28" value="" style="shape=tableRow;horizontal=0;startSize=0;swimlaneHead=0;swimlaneBody=0;fillColor=none;collapsible=0;dropTarget=0;points=[[0,0.5],[1,0.5]];portConstraint=eastwest;top=0;left=0;right=0;bottom=0;html=1;" vertex="1" parent="vSe0WeRxE17JH_EeaYV--21">
          <mxGeometry y="90" width="260" height="30" as="geometry" />
        </mxCell>
        <mxCell id="vSe0WeRxE17JH_EeaYV--29" value="" style="shape=partialRectangle;connectable=0;fillColor=none;top=0;left=0;bottom=0;right=0;editable=1;overflow=hidden;html=1;whiteSpace=wrap;" vertex="1" parent="vSe0WeRxE17JH_EeaYV--28">
          <mxGeometry width="100" height="30" as="geometry">
            <mxRectangle width="100" height="30" as="alternateBounds" />
          </mxGeometry>
        </mxCell>
        <mxCell id="vSe0WeRxE17JH_EeaYV--30" value="" style="shape=partialRectangle;connectable=0;fillColor=none;top=0;left=0;bottom=0;right=0;align=left;spacingLeft=6;overflow=hidden;html=1;whiteSpace=wrap;" vertex="1" parent="vSe0WeRxE17JH_EeaYV--28">
          <mxGeometry x="100" width="160" height="30" as="geometry">
            <mxRectangle width="160" height="30" as="alternateBounds" />
          </mxGeometry>
        </mxCell>
        <mxCell id="vSe0WeRxE17JH_EeaYV--31" value="" style="shape=tableRow;horizontal=0;startSize=0;swimlaneHead=0;swimlaneBody=0;fillColor=none;collapsible=0;dropTarget=0;points=[[0,0.5],[1,0.5]];portConstraint=eastwest;top=0;left=0;right=0;bottom=0;html=1;" vertex="1" parent="vSe0WeRxE17JH_EeaYV--21">
          <mxGeometry y="120" width="260" height="30" as="geometry" />
        </mxCell>
        <mxCell id="vSe0WeRxE17JH_EeaYV--32" value="" style="shape=partialRectangle;connectable=0;fillColor=none;top=0;left=0;bottom=0;right=0;editable=1;overflow=hidden;html=1;whiteSpace=wrap;" vertex="1" parent="vSe0WeRxE17JH_EeaYV--31">
          <mxGeometry width="100" height="30" as="geometry">
            <mxRectangle width="100" height="30" as="alternateBounds" />
          </mxGeometry>
        </mxCell>
        <mxCell id="vSe0WeRxE17JH_EeaYV--33" value="" style="shape=partialRectangle;connectable=0;fillColor=none;top=0;left=0;bottom=0;right=0;align=left;spacingLeft=6;overflow=hidden;html=1;whiteSpace=wrap;" vertex="1" parent="vSe0WeRxE17JH_EeaYV--31">
          <mxGeometry x="100" width="160" height="30" as="geometry">
            <mxRectangle width="160" height="30" as="alternateBounds" />
          </mxGeometry>
        </mxCell>
        <mxCell id="vSe0WeRxE17JH_EeaYV--34" value="" style="endArrow=none;html=1;rounded=0;entryX=0.407;entryY=1.05;entryDx=0;entryDy=0;entryPerimeter=0;" edge="1" parent="1">
          <mxGeometry relative="1" as="geometry">
            <mxPoint x="120" y="190" as="sourcePoint" />
            <mxPoint x="120" y="281" as="targetPoint" />
            <Array as="points">
              <mxPoint x="120" y="210" />
              <mxPoint x="120" y="230" />
              <mxPoint x="120" y="260" />
            </Array>
          </mxGeometry>
        </mxCell>
      </root>
    </mxGraphModel>
  </diagram>
</mxfile>
